<svg xmlns="http://www.w3.org/2000/svg" width="70" height="70" viewBox="0 0 70 70" fill="none">
  <path d="M9.32021 15.5619C9.19625 11.9919 11.9773 8.69897 15.7383 8.69897H54.2675C58.0271 8.69897 60.8096 11.9919 60.6856 15.5619C60.566 18.9919 60.7206 23.434 61.8392 27.0565C62.9606 30.6906 64.8521 32.9875 67.9496 33.2821V36.629C64.8521 36.9236 62.9606 39.2204 61.8392 42.8546C60.7206 46.4771 60.566 50.9192 60.6856 54.3492C60.8096 57.9192 58.0285 61.2121 54.2675 61.2121H15.7383C11.9788 61.2121 9.19626 57.9192 9.32167 54.3492C9.44126 50.9192 9.28521 46.4771 8.16813 42.8546C7.04667 39.2204 5.15084 36.9236 2.05188 36.629V33.2821C5.14938 32.9875 7.04667 30.6906 8.16813 27.0565C9.28521 23.4354 9.4398 18.9919 9.32021 15.5619Z" fill="#6C19FF"/>
  <path d="M36.5196 49.6066C42.8867 49.6066 46.7236 46.4887 46.7236 41.3467C46.7236 37.4602 43.9863 34.6456 39.9205 34.2008V34.0389C42.9071 33.5533 45.2507 30.7796 45.2507 27.6821C45.2507 23.2692 41.7667 20.3948 36.4569 20.3948H24.5103V49.6066H36.5196ZM29.158 24.0989H35.3384C38.6984 24.0989 40.6059 25.5967 40.6059 28.3092C40.6059 31.2039 38.3863 32.8242 34.3628 32.8242H29.1565L29.158 24.0989ZM29.158 45.901V36.2848H35.2975C39.6944 36.2848 41.9753 37.9035 41.9753 41.0623C41.9753 44.2196 39.7557 45.901 35.5673 45.901H29.158Z" fill="url(#paint0_linear_17_123)"/>
  <defs>
    <linearGradient id="paint0_linear_17_123" x1="26.0255" y1="22.6639" x2="39.4888" y2="45.4314" gradientUnits="userSpaceOnUse">
      <stop stop-color="white"/>
      <stop offset="1" stop-color="#F1E5FC"/>
    </linearGradient>
  </defs>
</svg>