<svg xmlns="http://www.w3.org/2000/svg" width="70" height="70" viewBox="0 0 70 70" fill="none">
  <path d="M37.9167 24.7917H26.25C20.6121 24.7917 16.0417 20.2213 16.0417 14.5833C16.0417 8.94542 20.6121 4.375 26.25 4.375H37.9167V24.7917Z" fill="#E64A19"/>
  <path d="M36.4583 45.2083H26.25C20.6121 45.2083 16.0417 40.6379 16.0417 35C16.0417 29.362 20.6121 24.7916 26.25 24.7916H36.4583V45.2083Z" fill="#7C4DFF"/>
  <path d="M26.25 65.625C20.6121 65.625 16.0417 61.0546 16.0417 55.4167C16.0417 49.7788 20.6121 45.2084 26.25 45.2084H36.4583V55.4167C36.4583 61.0546 31.8879 65.625 26.25 65.625Z" fill="#66BB6A"/>
  <path d="M46.6667 24.7917H36.4583V4.375H46.6667C52.3046 4.375 56.875 8.94542 56.875 14.5833C56.875 20.2213 52.3046 24.7917 46.6667 24.7917Z" fill="#FF7043"/>
  <path d="M46.6667 45.2083C52.3046 45.2083 56.875 40.6379 56.875 35C56.875 29.3621 52.3046 24.7916 46.6667 24.7916C41.0288 24.7916 36.4583 29.3621 36.4583 35C36.4583 40.6379 41.0288 45.2083 46.6667 45.2083Z" fill="#29B6F6"/>
</svg>