<svg xmlns="http://www.w3.org/2000/svg" width="70" height="70" viewBox="0 0 70 70" fill="none">
  <path d="M8.75 61.25V8.75H61.25V61.25H8.75Z" fill="#FFD600"/>
  <path d="M43.0762 48.0477C44.0854 49.6869 45.1821 51.2575 47.5052 51.2575C49.4564 51.2575 50.4802 50.2877 50.4802 48.9461C50.4802 47.3405 49.4214 46.7702 47.2748 45.8355L46.0979 45.3338C42.7014 43.893 40.4425 42.0875 40.4425 38.274C40.4425 34.7594 43.1331 32.0848 47.3375 32.0848C50.3314 32.0848 52.4825 33.1217 54.0341 35.8371L50.3679 38.1807C49.5614 36.7398 48.6893 36.1725 47.3375 36.1725C45.9579 36.1725 45.0843 37.0432 45.0843 38.1807C45.0843 39.5865 45.9593 40.1552 47.9791 41.0259L49.156 41.5275C53.1591 43.2323 55.4166 44.9736 55.4166 48.8877C55.4166 53.1052 52.0858 55.4167 47.6146 55.4167C43.241 55.4167 40.7575 53.2219 39.375 50.505L43.0762 48.0477ZM26.18 48.1673C26.9179 49.4886 28.0393 50.505 29.6523 50.505C31.1952 50.505 32.0833 49.8955 32.0833 47.5257V32.0834H36.9439V48.2723C36.9439 53.1825 34.0958 55.4167 29.9366 55.4167C26.1785 55.4167 23.466 52.8705 22.3606 50.505L26.18 48.1673Z" fill="#000001"/>
</svg>