<svg xmlns="http://www.w3.org/2000/svg" width="76" height="70" viewBox="0 0 76 70" fill="none">
  <path d="M62.4868 22.6652C61.678 22.3782 60.8624 22.1124 60.0406 21.8679C60.1786 21.2845 60.3057 20.7083 60.4185 20.1421C62.2704 10.8453 61.0598 3.35565 56.9246 0.889683C52.9599 -1.47435 46.4758 0.990692 39.9274 6.88451C39.282 7.46641 38.651 8.06508 38.0348 8.67995C37.6224 8.27108 37.2026 7.87015 36.7758 7.47736C29.9127 1.17552 23.0335 -1.48049 18.9028 0.992534C14.9416 3.36394 13.7687 10.4048 15.4359 19.2156C15.6018 20.0882 15.7891 20.9563 15.9976 21.8191C15.0239 22.1052 14.0843 22.4098 13.185 22.734C5.13858 25.6353 0 30.1819 0 34.898C0 39.7688 5.5165 44.6544 13.8972 47.6168C14.5767 47.856 15.2618 48.0776 15.9519 48.2815C15.7278 49.2108 15.5288 50.1463 15.3552 51.0871C13.7657 59.7449 15.007 66.6194 18.9575 68.9757C23.0377 71.4092 29.886 68.9082 36.554 62.8799C37.0947 62.3898 37.6235 61.8858 38.1399 61.3685C38.8072 62.0342 39.4922 62.6807 40.1943 63.307C46.6537 69.0549 53.0329 71.376 56.9795 69.0132C61.0559 66.5727 62.3808 59.1877 60.6608 50.2028C60.5253 49.4989 60.3733 48.7985 60.2051 48.1022C60.686 47.9549 61.158 47.8032 61.6182 47.6454C70.3308 44.6603 75.9996 39.8339 75.9996 34.898C75.9996 30.1647 70.6951 25.5874 62.4868 22.6652ZM60.5972 44.4585C60.1816 44.6007 59.7553 44.7379 59.3207 44.8715C58.3588 41.7224 57.0609 38.3741 55.4723 34.9143C56.9881 31.5371 58.2362 28.2314 59.1711 25.1029C59.9486 25.3356 60.7029 25.581 61.4303 25.8398C68.4632 28.3438 72.753 32.0455 72.753 34.898C72.753 37.9363 68.12 41.8805 60.5972 44.4585ZM57.4759 50.8549C58.2365 54.8278 58.3449 58.4199 57.8411 61.2281C57.3886 63.7515 56.4784 65.4337 55.3527 66.1076C52.9578 67.5414 47.8358 65.6778 42.3119 60.7618C41.6589 60.1795 41.0216 59.5785 40.4009 58.9596C42.5426 56.5375 44.6827 53.7219 46.7715 50.5946C50.4456 50.2575 53.9167 49.7061 57.0644 48.9536C57.2161 49.5839 57.3533 50.2179 57.4759 50.8549ZM25.9099 65.8598C23.57 66.7142 21.7062 66.7388 20.5796 66.0671C18.1823 64.6373 17.1857 59.1174 18.5451 51.7134C18.7067 50.8385 18.8917 49.9683 19.1 49.104C22.213 49.8163 25.6588 50.3284 29.3415 50.6373C31.4445 53.6973 33.6465 56.5099 35.8656 58.9728C35.394 59.4447 34.9112 59.9046 34.4177 60.3519C31.4689 63.0174 28.5141 64.9087 25.9099 65.8598ZM14.9476 44.4398C11.2417 43.1298 8.18124 41.4274 6.08353 39.5696C4.19839 37.9003 3.24691 36.2428 3.24691 34.898C3.24691 32.036 7.37256 28.3856 14.2538 25.9046C15.0889 25.6037 15.9629 25.3197 16.8698 25.0532C17.821 28.2523 19.0685 31.5973 20.5739 34.9797C19.0489 38.4121 17.7836 41.8105 16.8232 45.0474C16.1933 44.8608 15.5679 44.6582 14.9476 44.4398ZM18.6223 18.5705C17.194 11.0219 18.1425 5.32762 20.5297 3.89846C23.0721 2.37626 28.6943 4.54657 34.6202 9.98815C35.0066 10.3438 35.3868 10.7066 35.7605 11.0765C33.5524 13.5287 31.3706 16.3204 29.2863 19.3623C25.7119 19.7049 22.2905 20.2551 19.1448 20.9923C18.951 20.1898 18.7768 19.3821 18.6223 18.5705ZM51.4051 26.9423C50.6621 25.615 49.8916 24.3045 49.094 23.0115C51.5188 23.3287 53.8422 23.7496 56.0239 24.2642C55.369 26.4354 54.5526 28.7052 53.5916 31.0324C52.8892 29.6541 52.1602 28.2904 51.4051 26.9423ZM38.0363 13.4762C39.5338 15.154 41.0336 17.0271 42.5087 19.0596C39.5162 18.9134 36.5188 18.9128 33.5262 19.0578C35.0029 17.044 36.5154 15.1734 38.0363 13.4762ZM24.5817 26.9653C23.8361 28.3026 23.1207 29.6578 22.4362 31.0296C21.491 28.7107 20.682 26.4305 20.0214 24.2285C22.1898 23.7269 24.5022 23.3167 26.9116 23.0054C26.1051 24.3062 25.3283 25.6268 24.5817 26.9653ZM26.9808 47.0295C24.4915 46.7421 22.1444 46.3532 19.9766 45.865C20.6476 43.6238 21.4743 41.295 22.4401 38.9264C23.1273 40.2993 23.8456 41.6552 24.5945 42.9932C25.3646 44.3686 26.162 45.7158 26.9808 47.0295ZM38.126 56.5563C36.587 54.8394 35.0522 52.9399 33.5532 50.897C35.0085 50.956 36.492 50.986 37.9998 50.986C39.5489 50.986 41.0802 50.9501 42.5874 50.8807C41.1075 52.9605 39.6133 54.8628 38.126 56.5563ZM53.6222 38.8054C54.6381 41.2002 55.4943 43.5166 56.1741 45.7195C53.9707 46.2396 51.5916 46.6583 49.0848 46.9693C49.8881 45.6524 50.6659 44.3191 51.4179 42.9701C52.1825 41.599 52.9174 40.2104 53.6222 38.8054ZM48.6056 41.2926C47.4544 43.3608 46.2385 45.3897 44.9597 47.3761C42.6434 47.5458 40.3219 47.6301 37.9998 47.6288C35.6346 47.6288 33.3341 47.5527 31.1189 47.4041C29.8068 45.4222 28.5676 43.3897 27.4041 41.311C26.2461 39.2433 25.1647 37.1308 24.1616 34.9781C25.1621 32.825 26.2405 30.7115 27.3946 28.6422L27.3943 28.6425C28.548 26.5727 29.7772 24.5489 31.0794 22.5756C33.3395 22.3987 35.6572 22.3066 37.9995 22.3066C40.3525 22.3066 42.6735 22.3996 44.933 22.5777C46.222 24.5481 47.4434 26.5649 48.5949 28.6244C49.7529 30.6892 50.8455 32.7923 51.8712 34.9306C50.8561 37.0907 49.7668 39.2127 48.6056 41.2926ZM55.3031 3.79837C57.8479 5.31626 58.8377 11.4373 57.2387 19.4642C57.1366 19.9763 57.022 20.498 56.8973 21.027C53.7439 20.2742 50.3201 19.7145 46.7353 19.3666C44.6471 16.2912 42.4832 13.4952 40.311 11.0747C40.8803 10.5072 41.4631 9.95436 42.059 9.41679C47.6699 4.36727 52.9139 2.3735 55.3031 3.79837ZM37.9998 27.8796C41.7478 27.8796 44.7863 31.0219 44.7863 34.898C44.7863 38.7741 41.7478 41.9164 37.9998 41.9164C34.2518 41.9164 31.2133 38.7741 31.2133 34.898C31.2133 31.0219 34.2518 27.8796 37.9998 27.8796Z" fill="#00D8FF"/>
</svg>