<svg xmlns="http://www.w3.org/2000/svg" width="70" height="42" viewBox="0 0 70 42" fill="none">
  <path d="M35 0.00585938C25.6667 0.00585938 19.8333 4.67107 17.5 14.0015C21 9.33628 25.0833 7.58773 29.75 8.75294C32.4129 9.41794 34.316 11.3502 36.4233 13.4882C39.8533 16.9692 43.8244 21 52.5 21C61.8333 21 67.6667 16.3348 70 7.00294C66.5 11.6682 62.4167 13.4182 57.75 12.2529C55.0885 11.5879 53.1854 9.65565 51.0781 7.51773C47.6467 4.03523 43.6742 0.00585938 35 0.00585938ZM17.5 21C8.16667 21 2.33333 25.6652 0 34.9971C3.5 30.3319 7.58333 28.5819 12.25 29.7486C14.9115 30.415 16.8146 32.3459 18.9219 34.4823C22.3533 37.9648 26.3258 41.9957 35 41.9957C44.3333 41.9957 50.1667 37.3304 52.5 27.9986C49 32.6638 44.9167 34.4138 40.25 33.2471C37.5871 32.5821 35.684 30.6498 33.5767 28.5134C30.1467 25.0309 26.1756 21 17.5 21Z" fill="#00ACC1"/>
</svg>