<svg xmlns="http://www.w3.org/2000/svg" width="70" height="70" viewBox="0 0 70 70" fill="none">
  <path d="M65.4208 14.5483L36.4918 66.2783C35.8939 67.3458 34.3597 67.3531 33.7531 66.29L4.25099 14.5527C3.59036 13.3948 4.58057 11.9919 5.89307 12.2267L34.8541 17.4038C35.0393 17.4373 35.2274 17.4358 35.4127 17.4023L63.767 12.234C65.0752 11.9948 66.0697 13.3875 65.4208 14.5483Z" fill="url(#paint0_linear_31_5)"/>
  <path d="M48.962 4.38959L27.7359 8.54875C27.3874 8.6173 27.1293 8.91334 27.1074 9.26771L25.8022 31.3192C25.7716 31.8383 26.2484 32.2423 26.7559 32.1242L32.6651 30.7606C33.2178 30.6338 33.718 31.1194 33.6043 31.6765L31.8484 40.2733C31.7303 40.8523 32.2728 41.3467 32.8386 41.1746L36.4888 40.0663C37.0547 39.8942 37.5986 40.39 37.4791 40.9704L34.6893 54.4746C34.5143 55.319 35.6386 55.7798 36.1068 55.055L36.4203 54.5708L53.7161 20.0535C54.0063 19.476 53.5061 18.8169 52.8718 18.9394L46.7891 20.1133C46.2174 20.2242 45.7318 19.6919 45.8922 19.1319L49.8618 5.36813C50.0222 4.81105 49.5351 4.2773 48.962 4.38959Z" fill="url(#paint1_linear_31_5)"/>
  <defs>
    <linearGradient id="paint0_linear_31_5" x1="19.4177" y1="-1.32125" x2="55.4239" y2="47.5752" gradientUnits="userSpaceOnUse">
      <stop stop-color="#41D1FF"/>
      <stop offset="1" stop-color="#9231BE"/>
    </linearGradient>
    <linearGradient id="paint1_linear_31_5" x1="37.1903" y1="7.63584" x2="54.1493" y2="123.973" gradientUnits="userSpaceOnUse">
      <stop stop-color="#FED100"/>
      <stop offset="1" stop-color="#E36001"/>
    </linearGradient>
  </defs>
</svg>